<?xml version="1.0" encoding="UTF-8" standalone="no"?><svg xmlns="http://www.w3.org/2000/svg" xmlns:xlink="http://www.w3.org/1999/xlink" contentScriptType="application/ecmascript" contentStyleType="text/css" height="296px" preserveAspectRatio="none" style="width:579px;height:296px;" version="1.1" viewBox="0 0 579 296" width="579px" zoomAndPan="magnify"><defs><filter height="300%" id="f1jo1ks50k3zz1" width="300%" x="-1" y="-1"><feGaussianBlur result="blurOut" stdDeviation="2.0"/><feColorMatrix in="blurOut" result="blurOut2" type="matrix" values="0 0 0 0 0 0 0 0 0 0 0 0 0 0 0 0 0 0 .4 0"/><feOffset dx="4.0" dy="4.0" in="blurOut2" result="blurOut3"/><feBlend in="SourceGraphic" in2="blurOut3" mode="normal"/></filter></defs><g><ellipse cx="287.5" cy="20" fill="#000000" filter="url(#f1jo1ks50k3zz1)" rx="10" ry="10" style="stroke: none; stroke-width: 1.0;"/><rect fill="#000000" filter="url(#f1jo1ks50k3zz1)" height="6" rx="2.5" ry="2.5" style="stroke: #000000; stroke-width: 1.0;" width="558" x="10" y="50"/><rect fill="#FEFECE" filter="url(#f1jo1ks50k3zz1)" height="33.9688" rx="12.5" ry="12.5" style="stroke: #A80036; stroke-width: 1.5;" width="170" x="22" y="76"/><text fill="#000000" font-family="sans-serif" font-size="12" lengthAdjust="spacingAndGlyphs" textLength="150" x="32" y="97.1387">fetch_user_id_command</text><rect fill="#FEFECE" filter="url(#f1jo1ks50k3zz1)" height="33.9688" rx="12.5" ry="12.5" style="stroke: #A80036; stroke-width: 1.5;" width="156" x="208" y="76"/><text fill="#000000" font-family="sans-serif" font-size="12" lengthAdjust="spacingAndGlyphs" textLength="136" x="218" y="97.1387">fetch_code_command</text><rect fill="#FEFECE" filter="url(#f1jo1ks50k3zz1)" height="33.9688" rx="12.5" ry="12.5" style="stroke: #A80036; stroke-width: 1.5;" width="173" x="383" y="76"/><text fill="#000000" font-family="sans-serif" font-size="12" lengthAdjust="spacingAndGlyphs" textLength="153" x="393" y="97.1387">fetch_code_id_command</text><rect fill="#000000" filter="url(#f1jo1ks50k3zz1)" height="6" rx="2.5" ry="2.5" style="stroke: #000000; stroke-width: 1.0;" width="558" x="10" y="129.9688"/><rect fill="#FEFECE" filter="url(#f1jo1ks50k3zz1)" height="33.9688" rx="12.5" ry="12.5" style="stroke: #A80036; stroke-width: 1.5;" width="171" x="202" y="155.9688"/><text fill="#000000" font-family="sans-serif" font-size="12" lengthAdjust="spacingAndGlyphs" textLength="151" x="212" y="177.1074">replace_code_command</text><rect fill="#FEFECE" filter="url(#f1jo1ks50k3zz1)" height="33.9688" rx="12.5" ry="12.5" style="stroke: #A80036; stroke-width: 1.5;" width="166" x="204.5" y="209.9375"/><text fill="#000000" font-family="sans-serif" font-size="12" lengthAdjust="spacingAndGlyphs" textLength="146" x="214.5" y="231.0762">render_code_command</text><ellipse cx="287.5" cy="274.9063" fill="#FFFFFF" filter="url(#f1jo1ks50k3zz1)" rx="11" ry="11" style="stroke: #000000; stroke-width: 1.0;"/><ellipse cx="287.5" cy="274.9063" fill="#000000" rx="6" ry="6" style="stroke: #7F7F7F; stroke-width: 1.0;"/><line style="stroke: #A80036; stroke-width: 1.5;" x1="107" x2="107" y1="56" y2="76"/><polygon fill="#A80036" points="103,66,107,76,111,66,107,70" style="stroke: #A80036; stroke-width: 1.0;"/><line style="stroke: #A80036; stroke-width: 1.5;" x1="286" x2="286" y1="56" y2="76"/><polygon fill="#A80036" points="282,66,286,76,290,66,286,70" style="stroke: #A80036; stroke-width: 1.0;"/><line style="stroke: #A80036; stroke-width: 1.5;" x1="469.5" x2="469.5" y1="56" y2="76"/><polygon fill="#A80036" points="465.5,66,469.5,76,473.5,66,469.5,70" style="stroke: #A80036; stroke-width: 1.0;"/><line style="stroke: #A80036; stroke-width: 1.5;" x1="107" x2="107" y1="109.9688" y2="129.9688"/><polygon fill="#A80036" points="103,119.9688,107,129.9688,111,119.9688,107,123.9688" style="stroke: #A80036; stroke-width: 1.0;"/><line style="stroke: #A80036; stroke-width: 1.5;" x1="286" x2="286" y1="109.9688" y2="129.9688"/><polygon fill="#A80036" points="282,119.9688,286,129.9688,290,119.9688,286,123.9688" style="stroke: #A80036; stroke-width: 1.0;"/><line style="stroke: #A80036; stroke-width: 1.5;" x1="469.5" x2="469.5" y1="109.9688" y2="129.9688"/><polygon fill="#A80036" points="465.5,119.9688,469.5,129.9688,473.5,119.9688,469.5,123.9688" style="stroke: #A80036; stroke-width: 1.0;"/><line style="stroke: #A80036; stroke-width: 1.5;" x1="287.5" x2="287.5" y1="30" y2="50"/><polygon fill="#A80036" points="283.5,40,287.5,50,291.5,40,287.5,44" style="stroke: #A80036; stroke-width: 1.0;"/><line style="stroke: #A80036; stroke-width: 1.5;" x1="287.5" x2="287.5" y1="135.9688" y2="155.9688"/><polygon fill="#A80036" points="283.5,145.9688,287.5,155.9688,291.5,145.9688,287.5,149.9688" style="stroke: #A80036; stroke-width: 1.0;"/><line style="stroke: #A80036; stroke-width: 1.5;" x1="287.5" x2="287.5" y1="189.9375" y2="209.9375"/><polygon fill="#A80036" points="283.5,199.9375,287.5,209.9375,291.5,199.9375,287.5,203.9375" style="stroke: #A80036; stroke-width: 1.0;"/><line style="stroke: #A80036; stroke-width: 1.5;" x1="287.5" x2="287.5" y1="243.9063" y2="263.9063"/><polygon fill="#A80036" points="283.5,253.9063,287.5,263.9063,291.5,253.9063,287.5,257.9063" style="stroke: #A80036; stroke-width: 1.0;"/><!--MD5=[f2874dc46da752ea6a4ffbe3c2796a96]
@startuml
start
fork
:fetch_user_id_command;
fork again
:fetch_code_command;
fork again
:fetch_code_id_command;
end fork
:replace_code_command;
:render_code_command;
stop
@enduml

PlantUML version 1.2020.01beta5(Unknown compile time)
(GPL source distribution)
Java Runtime: Java(TM) SE Runtime Environment
JVM: Java HotSpot(TM) 64-Bit Server VM
Java Version: 1.7.0_25-b15
Operating System: Linux
Default Encoding: UTF-8
Language: en
Country: US
--></g></svg>