<?xml version="1.0" encoding="UTF-8" standalone="no"?><svg xmlns="http://www.w3.org/2000/svg" xmlns:xlink="http://www.w3.org/1999/xlink" contentScriptType="application/ecmascript" contentStyleType="text/css" height="296px" preserveAspectRatio="none" style="width:380px;height:296px;" version="1.1" viewBox="0 0 380 296" width="380px" zoomAndPan="magnify"><defs><filter height="300%" id="f1m54piwqi02y1" width="300%" x="-1" y="-1"><feGaussianBlur result="blurOut" stdDeviation="2.0"/><feColorMatrix in="blurOut" result="blurOut2" type="matrix" values="0 0 0 0 0 0 0 0 0 0 0 0 0 0 0 0 0 0 .4 0"/><feOffset dx="4.0" dy="4.0" in="blurOut2" result="blurOut3"/><feBlend in="SourceGraphic" in2="blurOut3" mode="normal"/></filter></defs><g><ellipse cx="189.5" cy="20" fill="#000000" filter="url(#f1m54piwqi02y1)" rx="10" ry="10" style="stroke: none; stroke-width: 1.0;"/><rect fill="#000000" filter="url(#f1m54piwqi02y1)" height="6" rx="2.5" ry="2.5" style="stroke: #000000; stroke-width: 1.0;" width="359" x="10" y="50"/><rect fill="#FEFECE" filter="url(#f1m54piwqi02y1)" height="33.9688" rx="12.5" ry="12.5" style="stroke: #A80036; stroke-width: 1.5;" width="162" x="22" y="76"/><text fill="#000000" font-family="sans-serif" font-size="12" lengthAdjust="spacingAndGlyphs" textLength="142" x="32" y="97.1387">fetch_level_id_usecase</text><rect fill="#FEFECE" filter="url(#f1m54piwqi02y1)" height="33.9688" rx="12.5" ry="12.5" style="stroke: #A80036; stroke-width: 1.5;" width="145" x="212" y="76"/><text fill="#000000" font-family="sans-serif" font-size="12" lengthAdjust="spacingAndGlyphs" textLength="125" x="222" y="97.1387">fetch_level_usecase</text><rect fill="#000000" filter="url(#f1m54piwqi02y1)" height="6" rx="2.5" ry="2.5" style="stroke: #000000; stroke-width: 1.0;" width="359" x="10" y="129.9688"/><rect fill="#FEFECE" filter="url(#f1m54piwqi02y1)" height="33.9688" rx="12.5" ry="12.5" style="stroke: #A80036; stroke-width: 1.5;" width="143" x="118" y="155.9688"/><text fill="#000000" font-family="sans-serif" font-size="12" lengthAdjust="spacingAndGlyphs" textLength="123" x="128" y="177.1074">write_level_usecase</text><rect fill="#FEFECE" filter="url(#f1m54piwqi02y1)" height="33.9688" rx="12.5" ry="12.5" style="stroke: #A80036; stroke-width: 1.5;" width="155" x="112" y="209.9375"/><text fill="#000000" font-family="sans-serif" font-size="12" lengthAdjust="spacingAndGlyphs" textLength="135" x="122" y="231.0762">render_level_usecase</text><ellipse cx="189.5" cy="274.9063" fill="#FFFFFF" filter="url(#f1m54piwqi02y1)" rx="11" ry="11" style="stroke: #000000; stroke-width: 1.0;"/><ellipse cx="189.5" cy="274.9063" fill="#000000" rx="6" ry="6" style="stroke: #7F7F7F; stroke-width: 1.0;"/><line style="stroke: #A80036; stroke-width: 1.5;" x1="103" x2="103" y1="56" y2="76"/><polygon fill="#A80036" points="99,66,103,76,107,66,103,70" style="stroke: #A80036; stroke-width: 1.0;"/><line style="stroke: #A80036; stroke-width: 1.5;" x1="284.5" x2="284.5" y1="56" y2="76"/><polygon fill="#A80036" points="280.5,66,284.5,76,288.5,66,284.5,70" style="stroke: #A80036; stroke-width: 1.0;"/><line style="stroke: #A80036; stroke-width: 1.5;" x1="103" x2="103" y1="109.9688" y2="129.9688"/><polygon fill="#A80036" points="99,119.9688,103,129.9688,107,119.9688,103,123.9688" style="stroke: #A80036; stroke-width: 1.0;"/><line style="stroke: #A80036; stroke-width: 1.5;" x1="284.5" x2="284.5" y1="109.9688" y2="129.9688"/><polygon fill="#A80036" points="280.5,119.9688,284.5,129.9688,288.5,119.9688,284.5,123.9688" style="stroke: #A80036; stroke-width: 1.0;"/><line style="stroke: #A80036; stroke-width: 1.5;" x1="189.5" x2="189.5" y1="30" y2="50"/><polygon fill="#A80036" points="185.5,40,189.5,50,193.5,40,189.5,44" style="stroke: #A80036; stroke-width: 1.0;"/><line style="stroke: #A80036; stroke-width: 1.5;" x1="189.5" x2="189.5" y1="135.9688" y2="155.9688"/><polygon fill="#A80036" points="185.5,145.9688,189.5,155.9688,193.5,145.9688,189.5,149.9688" style="stroke: #A80036; stroke-width: 1.0;"/><line style="stroke: #A80036; stroke-width: 1.5;" x1="189.5" x2="189.5" y1="189.9375" y2="209.9375"/><polygon fill="#A80036" points="185.5,199.9375,189.5,209.9375,193.5,199.9375,189.5,203.9375" style="stroke: #A80036; stroke-width: 1.0;"/><line style="stroke: #A80036; stroke-width: 1.5;" x1="189.5" x2="189.5" y1="243.9063" y2="263.9063"/><polygon fill="#A80036" points="185.5,253.9063,189.5,263.9063,193.5,253.9063,189.5,257.9063" style="stroke: #A80036; stroke-width: 1.0;"/><!--MD5=[387010bf0ad5b9293203ca204f2d9cdd]
@startuml
start
fork
:fetch_level_id_usecase;
fork again
:fetch_level_usecase;
end fork
:write_level_usecase;
:render_level_usecase;
stop
@enduml

PlantUML version 1.2020.02(Sun Mar 01 10:22:07 UTC 2020)
(GPL source distribution)
Java Runtime: Java(TM) SE Runtime Environment
JVM: Java HotSpot(TM) 64-Bit Server VM
Java Version: 1.7.0_25-b15
Operating System: Linux
Default Encoding: UTF-8
Language: en
Country: US
--></g></svg>