<?xml version="1.0" encoding="UTF-8" standalone="no"?><svg xmlns="http://www.w3.org/2000/svg" xmlns:xlink="http://www.w3.org/1999/xlink" contentScriptType="application/ecmascript" contentStyleType="text/css" height="352px" preserveAspectRatio="none" style="width:270px;height:352px;" version="1.1" viewBox="0 0 270 352" width="270px" zoomAndPan="magnify"><defs><filter height="300%" id="fdd45jxbtbka6" width="300%" x="-1" y="-1"><feGaussianBlur result="blurOut" stdDeviation="2.0"/><feColorMatrix in="blurOut" result="blurOut2" type="matrix" values="0 0 0 0 0 0 0 0 0 0 0 0 0 0 0 0 0 0 .4 0"/><feOffset dx="4.0" dy="4.0" in="blurOut2" result="blurOut3"/><feBlend in="SourceGraphic" in2="blurOut3" mode="normal"/></filter></defs><g><ellipse cx="134.5" cy="20" fill="#000000" filter="url(#fdd45jxbtbka6)" rx="10" ry="10" style="stroke: none; stroke-width: 1.0;"/><rect fill="#FEFECE" filter="url(#fdd45jxbtbka6)" height="33.9688" rx="12.5" ry="12.5" style="stroke: #A80036; stroke-width: 1.5;" width="248" x="10.5" y="50"/><text fill="#000000" font-family="sans-serif" font-size="12" lengthAdjust="spacingAndGlyphs" textLength="228" x="20.5" y="71.1387">fetch_authenticated_user_command</text><rect fill="#FEFECE" filter="url(#fdd45jxbtbka6)" height="33.9688" rx="12.5" ry="12.5" style="stroke: #A80036; stroke-width: 1.5;" width="249" x="10" y="103.9688"/><text fill="#000000" font-family="sans-serif" font-size="12" lengthAdjust="spacingAndGlyphs" textLength="229" x="20" y="125.1074">validate_user_parameters_command</text><rect fill="#FEFECE" filter="url(#fdd45jxbtbka6)" height="33.9688" rx="12.5" ry="12.5" style="stroke: #A80036; stroke-width: 1.5;" width="168" x="50.5" y="157.9375"/><text fill="#000000" font-family="sans-serif" font-size="12" lengthAdjust="spacingAndGlyphs" textLength="148" x="60.5" y="179.0762">authenticate_command</text><rect fill="#FEFECE" filter="url(#fdd45jxbtbka6)" height="33.9688" rx="12.5" ry="12.5" style="stroke: #A80036; stroke-width: 1.5;" width="182" x="43.5" y="211.9063"/><text fill="#000000" font-family="sans-serif" font-size="12" lengthAdjust="spacingAndGlyphs" textLength="162" x="53.5" y="233.0449">create_session_command</text><rect fill="#FEFECE" filter="url(#fdd45jxbtbka6)" height="33.9688" rx="12.5" ry="12.5" style="stroke: #A80036; stroke-width: 1.5;" width="183" x="43" y="265.875"/><text fill="#000000" font-family="sans-serif" font-size="12" lengthAdjust="spacingAndGlyphs" textLength="163" x="53" y="287.0137">render_session_command</text><ellipse cx="134.5" cy="330.8438" fill="#FFFFFF" filter="url(#fdd45jxbtbka6)" rx="11" ry="11" style="stroke: #000000; stroke-width: 1.0;"/><ellipse cx="134.5" cy="330.8438" fill="#000000" rx="6" ry="6" style="stroke: #7F7F7F; stroke-width: 1.0;"/><line style="stroke: #A80036; stroke-width: 1.5;" x1="134.5" x2="134.5" y1="30" y2="50"/><polygon fill="#A80036" points="130.5,40,134.5,50,138.5,40,134.5,44" style="stroke: #A80036; stroke-width: 1.0;"/><line style="stroke: #A80036; stroke-width: 1.5;" x1="134.5" x2="134.5" y1="83.9688" y2="103.9688"/><polygon fill="#A80036" points="130.5,93.9688,134.5,103.9688,138.5,93.9688,134.5,97.9688" style="stroke: #A80036; stroke-width: 1.0;"/><line style="stroke: #A80036; stroke-width: 1.5;" x1="134.5" x2="134.5" y1="137.9375" y2="157.9375"/><polygon fill="#A80036" points="130.5,147.9375,134.5,157.9375,138.5,147.9375,134.5,151.9375" style="stroke: #A80036; stroke-width: 1.0;"/><line style="stroke: #A80036; stroke-width: 1.5;" x1="134.5" x2="134.5" y1="191.9063" y2="211.9063"/><polygon fill="#A80036" points="130.5,201.9063,134.5,211.9063,138.5,201.9063,134.5,205.9063" style="stroke: #A80036; stroke-width: 1.0;"/><line style="stroke: #A80036; stroke-width: 1.5;" x1="134.5" x2="134.5" y1="245.875" y2="265.875"/><polygon fill="#A80036" points="130.5,255.875,134.5,265.875,138.5,255.875,134.5,259.875" style="stroke: #A80036; stroke-width: 1.0;"/><line style="stroke: #A80036; stroke-width: 1.5;" x1="134.5" x2="134.5" y1="299.8438" y2="319.8438"/><polygon fill="#A80036" points="130.5,309.8438,134.5,319.8438,138.5,309.8438,134.5,313.8438" style="stroke: #A80036; stroke-width: 1.0;"/><!--MD5=[66b3c1f3742863d58a39af2ac83d435e]
@startuml
start
:fetch_authenticated_user_command;
:validate_user_parameters_command;
:authenticate_command;
:create_session_command;
:render_session_command;
stop
@enduml

PlantUML version 1.2020.01beta16(Unknown compile time)
(GPL source distribution)
Java Runtime: Java(TM) SE Runtime Environment
JVM: Java HotSpot(TM) 64-Bit Server VM
Java Version: 1.7.0_25-b15
Operating System: Linux
Default Encoding: UTF-8
Language: en
Country: US
--></g></svg>