<?xml version="1.0" encoding="UTF-8" standalone="no"?><svg xmlns="http://www.w3.org/2000/svg" xmlns:xlink="http://www.w3.org/1999/xlink" contentScriptType="application/ecmascript" contentStyleType="text/css" height="296px" preserveAspectRatio="none" style="width:603px;height:296px;" version="1.1" viewBox="0 0 603 296" width="603px" zoomAndPan="magnify"><defs><filter height="300%" id="fli8xvy4vmq91" width="300%" x="-1" y="-1"><feGaussianBlur result="blurOut" stdDeviation="2.0"/><feColorMatrix in="blurOut" result="blurOut2" type="matrix" values="0 0 0 0 0 0 0 0 0 0 0 0 0 0 0 0 0 0 .4 0"/><feOffset dx="4.0" dy="4.0" in="blurOut2" result="blurOut3"/><feBlend in="SourceGraphic" in2="blurOut3" mode="normal"/></filter></defs><g><ellipse cx="301" cy="20" fill="#000000" filter="url(#fli8xvy4vmq91)" rx="10" ry="10" style="stroke: none; stroke-width: 1.0;"/><rect fill="#000000" filter="url(#fli8xvy4vmq91)" height="6" rx="2.5" ry="2.5" style="stroke: #000000; stroke-width: 1.0;" width="582" x="10" y="50"/><rect fill="#FEFECE" filter="url(#fli8xvy4vmq91)" height="33.9688" rx="12.5" ry="12.5" style="stroke: #A80036; stroke-width: 1.5;" width="162" x="22" y="76"/><text fill="#000000" font-family="sans-serif" font-size="12" lengthAdjust="spacingAndGlyphs" textLength="142" x="32" y="97.1387">fetch_user_id_usecase</text><rect fill="#FEFECE" filter="url(#fli8xvy4vmq91)" height="33.9688" rx="12.5" ry="12.5" style="stroke: #A80036; stroke-width: 1.5;" width="214" x="194" y="76"/><text fill="#000000" font-family="sans-serif" font-size="12" lengthAdjust="spacingAndGlyphs" textLength="194" x="204" y="97.1387">fetch_user_level_data_usecase</text><rect fill="#FEFECE" filter="url(#fli8xvy4vmq91)" height="33.9688" rx="12.5" ry="12.5" style="stroke: #A80036; stroke-width: 1.5;" width="162" x="418" y="76"/><text fill="#000000" font-family="sans-serif" font-size="12" lengthAdjust="spacingAndGlyphs" textLength="142" x="428" y="97.1387">fetch_level_id_usecase</text><rect fill="#000000" filter="url(#fli8xvy4vmq91)" height="6" rx="2.5" ry="2.5" style="stroke: #000000; stroke-width: 1.0;" width="582" x="10" y="129.9688"/><rect fill="#FEFECE" filter="url(#fli8xvy4vmq91)" height="33.9688" rx="12.5" ry="12.5" style="stroke: #A80036; stroke-width: 1.5;" width="177" x="212.5" y="155.9688"/><text fill="#000000" font-family="sans-serif" font-size="12" lengthAdjust="spacingAndGlyphs" textLength="157" x="222.5" y="177.1074">write_user_level_usecase</text><rect fill="#FEFECE" filter="url(#fli8xvy4vmq91)" height="33.9688" rx="12.5" ry="12.5" style="stroke: #A80036; stroke-width: 1.5;" width="189" x="206.5" y="209.9375"/><text fill="#000000" font-family="sans-serif" font-size="12" lengthAdjust="spacingAndGlyphs" textLength="169" x="216.5" y="231.0762">render_user_level_usecase</text><ellipse cx="301" cy="274.9063" fill="#FFFFFF" filter="url(#fli8xvy4vmq91)" rx="11" ry="11" style="stroke: #000000; stroke-width: 1.0;"/><ellipse cx="301" cy="274.9063" fill="#000000" rx="6" ry="6" style="stroke: #7F7F7F; stroke-width: 1.0;"/><line style="stroke: #A80036; stroke-width: 1.5;" x1="103" x2="103" y1="56" y2="76"/><polygon fill="#A80036" points="99,66,103,76,107,66,103,70" style="stroke: #A80036; stroke-width: 1.0;"/><line style="stroke: #A80036; stroke-width: 1.5;" x1="301" x2="301" y1="56" y2="76"/><polygon fill="#A80036" points="297,66,301,76,305,66,301,70" style="stroke: #A80036; stroke-width: 1.0;"/><line style="stroke: #A80036; stroke-width: 1.5;" x1="499" x2="499" y1="56" y2="76"/><polygon fill="#A80036" points="495,66,499,76,503,66,499,70" style="stroke: #A80036; stroke-width: 1.0;"/><line style="stroke: #A80036; stroke-width: 1.5;" x1="103" x2="103" y1="109.9688" y2="129.9688"/><polygon fill="#A80036" points="99,119.9688,103,129.9688,107,119.9688,103,123.9688" style="stroke: #A80036; stroke-width: 1.0;"/><line style="stroke: #A80036; stroke-width: 1.5;" x1="301" x2="301" y1="109.9688" y2="129.9688"/><polygon fill="#A80036" points="297,119.9688,301,129.9688,305,119.9688,301,123.9688" style="stroke: #A80036; stroke-width: 1.0;"/><line style="stroke: #A80036; stroke-width: 1.5;" x1="499" x2="499" y1="109.9688" y2="129.9688"/><polygon fill="#A80036" points="495,119.9688,499,129.9688,503,119.9688,499,123.9688" style="stroke: #A80036; stroke-width: 1.0;"/><line style="stroke: #A80036; stroke-width: 1.5;" x1="301" x2="301" y1="30" y2="50"/><polygon fill="#A80036" points="297,40,301,50,305,40,301,44" style="stroke: #A80036; stroke-width: 1.0;"/><line style="stroke: #A80036; stroke-width: 1.5;" x1="301" x2="301" y1="135.9688" y2="155.9688"/><polygon fill="#A80036" points="297,145.9688,301,155.9688,305,145.9688,301,149.9688" style="stroke: #A80036; stroke-width: 1.0;"/><line style="stroke: #A80036; stroke-width: 1.5;" x1="301" x2="301" y1="189.9375" y2="209.9375"/><polygon fill="#A80036" points="297,199.9375,301,209.9375,305,199.9375,301,203.9375" style="stroke: #A80036; stroke-width: 1.0;"/><line style="stroke: #A80036; stroke-width: 1.5;" x1="301" x2="301" y1="243.9063" y2="263.9063"/><polygon fill="#A80036" points="297,253.9063,301,263.9063,305,253.9063,301,257.9063" style="stroke: #A80036; stroke-width: 1.0;"/><!--MD5=[cdaabf8329cb99f475a16da5ae844d88]
@startuml
start
fork
:fetch_user_id_usecase;
fork again
:fetch_user_level_data_usecase;
fork again
:fetch_level_id_usecase;
end fork
:write_user_level_usecase;
:render_user_level_usecase;
stop
@enduml

PlantUML version 1.2020.02(Sun Mar 01 10:22:07 UTC 2020)
(GPL source distribution)
Java Runtime: Java(TM) SE Runtime Environment
JVM: Java HotSpot(TM) 64-Bit Server VM
Java Version: 1.7.0_25-b15
Operating System: Linux
Default Encoding: UTF-8
Language: en
Country: US
--></g></svg>