<?xml version="1.0" encoding="UTF-8" standalone="no"?><svg xmlns="http://www.w3.org/2000/svg" xmlns:xlink="http://www.w3.org/1999/xlink" contentScriptType="application/ecmascript" contentStyleType="text/css" height="296px" preserveAspectRatio="none" style="width:627px;height:296px;" version="1.1" viewBox="0 0 627 296" width="627px" zoomAndPan="magnify"><defs><filter height="300%" id="f1gibg8qexw65r" width="300%" x="-1" y="-1"><feGaussianBlur result="blurOut" stdDeviation="2.0"/><feColorMatrix in="blurOut" result="blurOut2" type="matrix" values="0 0 0 0 0 0 0 0 0 0 0 0 0 0 0 0 0 0 .4 0"/><feOffset dx="4.0" dy="4.0" in="blurOut2" result="blurOut3"/><feBlend in="SourceGraphic" in2="blurOut3" mode="normal"/></filter></defs><g><ellipse cx="313" cy="20" fill="#000000" filter="url(#f1gibg8qexw65r)" rx="10" ry="10" style="stroke: none; stroke-width: 1.0;"/><rect fill="#000000" filter="url(#f1gibg8qexw65r)" height="6" rx="2.5" ry="2.5" style="stroke: #000000; stroke-width: 1.0;" width="606" x="10" y="50"/><rect fill="#FEFECE" filter="url(#f1gibg8qexw65r)" height="33.9688" rx="12.5" ry="12.5" style="stroke: #A80036; stroke-width: 1.5;" width="170" x="22" y="76"/><text fill="#000000" font-family="sans-serif" font-size="12" lengthAdjust="spacingAndGlyphs" textLength="150" x="32" y="97.1387">fetch_user_id_command</text><rect fill="#FEFECE" filter="url(#f1gibg8qexw65r)" height="33.9688" rx="12.5" ry="12.5" style="stroke: #A80036; stroke-width: 1.5;" width="222" x="202" y="76"/><text fill="#000000" font-family="sans-serif" font-size="12" lengthAdjust="spacingAndGlyphs" textLength="202" x="212" y="97.1387">fetch_user_level_data_command</text><rect fill="#FEFECE" filter="url(#f1gibg8qexw65r)" height="33.9688" rx="12.5" ry="12.5" style="stroke: #A80036; stroke-width: 1.5;" width="170" x="434" y="76"/><text fill="#000000" font-family="sans-serif" font-size="12" lengthAdjust="spacingAndGlyphs" textLength="150" x="444" y="97.1387">fetch_level_id_command</text><rect fill="#000000" filter="url(#f1gibg8qexw65r)" height="6" rx="2.5" ry="2.5" style="stroke: #000000; stroke-width: 1.0;" width="606" x="10" y="129.9688"/><rect fill="#FEFECE" filter="url(#f1gibg8qexw65r)" height="33.9688" rx="12.5" ry="12.5" style="stroke: #A80036; stroke-width: 1.5;" width="185" x="220.5" y="155.9688"/><text fill="#000000" font-family="sans-serif" font-size="12" lengthAdjust="spacingAndGlyphs" textLength="165" x="230.5" y="177.1074">write_user_level_command</text><rect fill="#FEFECE" filter="url(#f1gibg8qexw65r)" height="33.9688" rx="12.5" ry="12.5" style="stroke: #A80036; stroke-width: 1.5;" width="197" x="214.5" y="209.9375"/><text fill="#000000" font-family="sans-serif" font-size="12" lengthAdjust="spacingAndGlyphs" textLength="177" x="224.5" y="231.0762">render_user_level_command</text><ellipse cx="313" cy="274.9063" fill="#FFFFFF" filter="url(#f1gibg8qexw65r)" rx="11" ry="11" style="stroke: #000000; stroke-width: 1.0;"/><ellipse cx="313" cy="274.9063" fill="#000000" rx="6" ry="6" style="stroke: #7F7F7F; stroke-width: 1.0;"/><line style="stroke: #A80036; stroke-width: 1.5;" x1="107" x2="107" y1="56" y2="76"/><polygon fill="#A80036" points="103,66,107,76,111,66,107,70" style="stroke: #A80036; stroke-width: 1.0;"/><line style="stroke: #A80036; stroke-width: 1.5;" x1="313" x2="313" y1="56" y2="76"/><polygon fill="#A80036" points="309,66,313,76,317,66,313,70" style="stroke: #A80036; stroke-width: 1.0;"/><line style="stroke: #A80036; stroke-width: 1.5;" x1="519" x2="519" y1="56" y2="76"/><polygon fill="#A80036" points="515,66,519,76,523,66,519,70" style="stroke: #A80036; stroke-width: 1.0;"/><line style="stroke: #A80036; stroke-width: 1.5;" x1="107" x2="107" y1="109.9688" y2="129.9688"/><polygon fill="#A80036" points="103,119.9688,107,129.9688,111,119.9688,107,123.9688" style="stroke: #A80036; stroke-width: 1.0;"/><line style="stroke: #A80036; stroke-width: 1.5;" x1="313" x2="313" y1="109.9688" y2="129.9688"/><polygon fill="#A80036" points="309,119.9688,313,129.9688,317,119.9688,313,123.9688" style="stroke: #A80036; stroke-width: 1.0;"/><line style="stroke: #A80036; stroke-width: 1.5;" x1="519" x2="519" y1="109.9688" y2="129.9688"/><polygon fill="#A80036" points="515,119.9688,519,129.9688,523,119.9688,519,123.9688" style="stroke: #A80036; stroke-width: 1.0;"/><line style="stroke: #A80036; stroke-width: 1.5;" x1="313" x2="313" y1="30" y2="50"/><polygon fill="#A80036" points="309,40,313,50,317,40,313,44" style="stroke: #A80036; stroke-width: 1.0;"/><line style="stroke: #A80036; stroke-width: 1.5;" x1="313" x2="313" y1="135.9688" y2="155.9688"/><polygon fill="#A80036" points="309,145.9688,313,155.9688,317,145.9688,313,149.9688" style="stroke: #A80036; stroke-width: 1.0;"/><line style="stroke: #A80036; stroke-width: 1.5;" x1="313" x2="313" y1="189.9375" y2="209.9375"/><polygon fill="#A80036" points="309,199.9375,313,209.9375,317,199.9375,313,203.9375" style="stroke: #A80036; stroke-width: 1.0;"/><line style="stroke: #A80036; stroke-width: 1.5;" x1="313" x2="313" y1="243.9063" y2="263.9063"/><polygon fill="#A80036" points="309,253.9063,313,263.9063,317,253.9063,313,257.9063" style="stroke: #A80036; stroke-width: 1.0;"/><!--MD5=[6aaf9d3fead078604ad497c2e9c2c622]
@startuml
start
fork
:fetch_user_id_command;
fork again
:fetch_user_level_data_command;
fork again
:fetch_level_id_command;
end fork
:write_user_level_command;
:render_user_level_command;
stop
@enduml

PlantUML version 1.2020.01beta16(Unknown compile time)
(GPL source distribution)
Java Runtime: Java(TM) SE Runtime Environment
JVM: Java HotSpot(TM) 64-Bit Server VM
Java Version: 1.7.0_25-b15
Operating System: Linux
Default Encoding: UTF-8
Language: en
Country: US
--></g></svg>