<?xml version="1.0" encoding="UTF-8" standalone="no"?><svg xmlns="http://www.w3.org/2000/svg" xmlns:xlink="http://www.w3.org/1999/xlink" contentScriptType="application/ecmascript" contentStyleType="text/css" height="244px" preserveAspectRatio="none" style="width:186px;height:244px;" version="1.1" viewBox="0 0 186 244" width="186px" zoomAndPan="magnify"><defs><filter height="300%" id="fhue6p9djgfuz" width="300%" x="-1" y="-1"><feGaussianBlur result="blurOut" stdDeviation="2.0"/><feColorMatrix in="blurOut" result="blurOut2" type="matrix" values="0 0 0 0 0 0 0 0 0 0 0 0 0 0 0 0 0 0 .4 0"/><feOffset dx="4.0" dy="4.0" in="blurOut2" result="blurOut3"/><feBlend in="SourceGraphic" in2="blurOut3" mode="normal"/></filter></defs><g><ellipse cx="92.5" cy="20" fill="#000000" filter="url(#fhue6p9djgfuz)" rx="10" ry="10" style="stroke: none; stroke-width: 1.0;"/><rect fill="#FEFECE" filter="url(#fhue6p9djgfuz)" height="33.9688" rx="12.5" ry="12.5" style="stroke: #A80036; stroke-width: 1.5;" width="162" x="11.5" y="50"/><text fill="#000000" font-family="sans-serif" font-size="12" lengthAdjust="spacingAndGlyphs" textLength="142" x="21.5" y="71.1387">fetch_user_id_usecase</text><rect fill="#FEFECE" filter="url(#fhue6p9djgfuz)" height="33.9688" rx="12.5" ry="12.5" style="stroke: #A80036; stroke-width: 1.5;" width="153" x="16" y="103.9688"/><text fill="#000000" font-family="sans-serif" font-size="12" lengthAdjust="spacingAndGlyphs" textLength="133" x="26" y="125.1074">delete_user_usecase</text><rect fill="#FEFECE" filter="url(#fhue6p9djgfuz)" height="33.9688" rx="12.5" ry="12.5" style="stroke: #A80036; stroke-width: 1.5;" width="165" x="10" y="157.9375"/><text fill="#000000" font-family="sans-serif" font-size="12" lengthAdjust="spacingAndGlyphs" textLength="145" x="20" y="179.0762">render_empty_usecase</text><ellipse cx="92.5" cy="222.9063" fill="#FFFFFF" filter="url(#fhue6p9djgfuz)" rx="11" ry="11" style="stroke: #000000; stroke-width: 1.0;"/><ellipse cx="92.5" cy="222.9063" fill="#000000" rx="6" ry="6" style="stroke: #7F7F7F; stroke-width: 1.0;"/><line style="stroke: #A80036; stroke-width: 1.5;" x1="92.5" x2="92.5" y1="30" y2="50"/><polygon fill="#A80036" points="88.5,40,92.5,50,96.5,40,92.5,44" style="stroke: #A80036; stroke-width: 1.0;"/><line style="stroke: #A80036; stroke-width: 1.5;" x1="92.5" x2="92.5" y1="83.9688" y2="103.9688"/><polygon fill="#A80036" points="88.5,93.9688,92.5,103.9688,96.5,93.9688,92.5,97.9688" style="stroke: #A80036; stroke-width: 1.0;"/><line style="stroke: #A80036; stroke-width: 1.5;" x1="92.5" x2="92.5" y1="137.9375" y2="157.9375"/><polygon fill="#A80036" points="88.5,147.9375,92.5,157.9375,96.5,147.9375,92.5,151.9375" style="stroke: #A80036; stroke-width: 1.0;"/><line style="stroke: #A80036; stroke-width: 1.5;" x1="92.5" x2="92.5" y1="191.9063" y2="211.9063"/><polygon fill="#A80036" points="88.5,201.9063,92.5,211.9063,96.5,201.9063,92.5,205.9063" style="stroke: #A80036; stroke-width: 1.0;"/><!--MD5=[018bdd8170d66b941716db266a896fba]
@startuml
start
:fetch_user_id_usecase;
:delete_user_usecase;
:render_empty_usecase;
stop
@enduml

PlantUML version 1.2020.02(Sun Mar 01 10:22:07 UTC 2020)
(GPL source distribution)
Java Runtime: Java(TM) SE Runtime Environment
JVM: Java HotSpot(TM) 64-Bit Server VM
Java Version: 1.7.0_25-b15
Operating System: Linux
Default Encoding: UTF-8
Language: en
Country: US
--></g></svg>