<?xml version="1.0" encoding="UTF-8" standalone="no"?><svg xmlns="http://www.w3.org/2000/svg" xmlns:xlink="http://www.w3.org/1999/xlink" contentScriptType="application/ecmascript" contentStyleType="text/css" height="365px" preserveAspectRatio="none" style="width:476px;height:365px;" version="1.1" viewBox="0 0 476 365" width="476px" zoomAndPan="magnify"><defs><filter height="300%" id="f1g62gjp4yuxbg" width="300%" x="-1" y="-1"><feGaussianBlur result="blurOut" stdDeviation="2.0"/><feColorMatrix in="blurOut" result="blurOut2" type="matrix" values="0 0 0 0 0 0 0 0 0 0 0 0 0 0 0 0 0 0 .4 0"/><feOffset dx="4.0" dy="4.0" in="blurOut2" result="blurOut3"/><feBlend in="SourceGraphic" in2="blurOut3" mode="normal"/></filter></defs><g><ellipse cx="237.5" cy="20" fill="#000000" filter="url(#f1g62gjp4yuxbg)" rx="10" ry="10" style="stroke: none; stroke-width: 1.0;"/><rect fill="#000000" filter="url(#f1g62gjp4yuxbg)" height="6" rx="2.5" ry="2.5" style="stroke: #000000; stroke-width: 1.0;" width="455" x="10" y="50"/><rect fill="#FEFECE" filter="url(#f1g62gjp4yuxbg)" height="33.9688" rx="12.5" ry="12.5" style="stroke: #A80036; stroke-width: 1.5;" width="162" x="22" y="110.4844"/><text fill="#000000" font-family="sans-serif" font-size="12" lengthAdjust="spacingAndGlyphs" textLength="142" x="32" y="131.623">fetch_user_id_usecase</text><rect fill="#FEFECE" filter="url(#f1g62gjp4yuxbg)" height="33.9688" rx="12.5" ry="12.5" style="stroke: #A80036; stroke-width: 1.5;" width="240" x="212.5" y="76"/><text fill="#000000" font-family="sans-serif" font-size="12" lengthAdjust="spacingAndGlyphs" textLength="220" x="222.5" y="97.1387">fetch_authenticated_user_usecase</text><rect fill="#FEFECE" filter="url(#f1g62gjp4yuxbg)" height="33.9688" rx="12.5" ry="12.5" style="stroke: #A80036; stroke-width: 1.5;" width="241" x="212" y="144.9688"/><text fill="#000000" font-family="sans-serif" font-size="12" lengthAdjust="spacingAndGlyphs" textLength="221" x="222" y="166.1074">validate_user_parameters_usecase</text><rect fill="#000000" filter="url(#f1g62gjp4yuxbg)" height="6" rx="2.5" ry="2.5" style="stroke: #000000; stroke-width: 1.0;" width="455" x="10" y="198.9375"/><rect fill="#FEFECE" filter="url(#f1g62gjp4yuxbg)" height="33.9688" rx="12.5" ry="12.5" style="stroke: #A80036; stroke-width: 1.5;" width="158" x="158.5" y="224.9375"/><text fill="#000000" font-family="sans-serif" font-size="12" lengthAdjust="spacingAndGlyphs" textLength="138" x="168.5" y="246.0762">update_user_usecase</text><rect fill="#FEFECE" filter="url(#f1g62gjp4yuxbg)" height="33.9688" rx="12.5" ry="12.5" style="stroke: #A80036; stroke-width: 1.5;" width="155" x="160" y="278.9063"/><text fill="#000000" font-family="sans-serif" font-size="12" lengthAdjust="spacingAndGlyphs" textLength="135" x="170" y="300.0449">render_user_usecase</text><ellipse cx="237.5" cy="343.875" fill="#FFFFFF" filter="url(#f1g62gjp4yuxbg)" rx="11" ry="11" style="stroke: #000000; stroke-width: 1.0;"/><ellipse cx="237.5" cy="343.875" fill="#000000" rx="6" ry="6" style="stroke: #7F7F7F; stroke-width: 1.0;"/><line style="stroke: #A80036; stroke-width: 1.5;" x1="332.5" x2="332.5" y1="109.9688" y2="144.9688"/><polygon fill="#A80036" points="328.5,134.9688,332.5,144.9688,336.5,134.9688,332.5,138.9688" style="stroke: #A80036; stroke-width: 1.0;"/><line style="stroke: #A80036; stroke-width: 1.5;" x1="103" x2="103" y1="56" y2="110.4844"/><polygon fill="#A80036" points="99,100.4844,103,110.4844,107,100.4844,103,104.4844" style="stroke: #A80036; stroke-width: 1.0;"/><line style="stroke: #A80036; stroke-width: 1.5;" x1="332.5" x2="332.5" y1="56" y2="76"/><polygon fill="#A80036" points="328.5,66,332.5,76,336.5,66,332.5,70" style="stroke: #A80036; stroke-width: 1.0;"/><line style="stroke: #A80036; stroke-width: 1.5;" x1="103" x2="103" y1="144.4531" y2="198.9375"/><polygon fill="#A80036" points="99,188.9375,103,198.9375,107,188.9375,103,192.9375" style="stroke: #A80036; stroke-width: 1.0;"/><line style="stroke: #A80036; stroke-width: 1.5;" x1="332.5" x2="332.5" y1="178.9375" y2="198.9375"/><polygon fill="#A80036" points="328.5,188.9375,332.5,198.9375,336.5,188.9375,332.5,192.9375" style="stroke: #A80036; stroke-width: 1.0;"/><line style="stroke: #A80036; stroke-width: 1.5;" x1="237.5" x2="237.5" y1="30" y2="50"/><polygon fill="#A80036" points="233.5,40,237.5,50,241.5,40,237.5,44" style="stroke: #A80036; stroke-width: 1.0;"/><line style="stroke: #A80036; stroke-width: 1.5;" x1="237.5" x2="237.5" y1="204.9375" y2="224.9375"/><polygon fill="#A80036" points="233.5,214.9375,237.5,224.9375,241.5,214.9375,237.5,218.9375" style="stroke: #A80036; stroke-width: 1.0;"/><line style="stroke: #A80036; stroke-width: 1.5;" x1="237.5" x2="237.5" y1="258.9063" y2="278.9063"/><polygon fill="#A80036" points="233.5,268.9063,237.5,278.9063,241.5,268.9063,237.5,272.9063" style="stroke: #A80036; stroke-width: 1.0;"/><line style="stroke: #A80036; stroke-width: 1.5;" x1="237.5" x2="237.5" y1="312.875" y2="332.875"/><polygon fill="#A80036" points="233.5,322.875,237.5,332.875,241.5,322.875,237.5,326.875" style="stroke: #A80036; stroke-width: 1.0;"/><!--MD5=[aaccd1b02b0c1947b4df8c82f496ca41]
@startuml
start
fork
:fetch_user_id_usecase;
fork again
:fetch_authenticated_user_usecase;
:validate_user_parameters_usecase;
end fork
:update_user_usecase;
:render_user_usecase;
stop
@enduml

PlantUML version 1.2020.02(Sun Mar 01 10:22:07 UTC 2020)
(GPL source distribution)
Java Runtime: Java(TM) SE Runtime Environment
JVM: Java HotSpot(TM) 64-Bit Server VM
Java Version: 1.7.0_25-b15
Operating System: Linux
Default Encoding: UTF-8
Language: en
Country: US
--></g></svg>