<?xml version="1.0" encoding="UTF-8" standalone="no"?><svg xmlns="http://www.w3.org/2000/svg" xmlns:xlink="http://www.w3.org/1999/xlink" contentScriptType="application/ecmascript" contentStyleType="text/css" height="244px" preserveAspectRatio="none" style="width:191px;height:244px;" version="1.1" viewBox="0 0 191 244" width="191px" zoomAndPan="magnify"><defs><filter height="300%" id="f1j0aucds5lnje" width="300%" x="-1" y="-1"><feGaussianBlur result="blurOut" stdDeviation="2.0"/><feColorMatrix in="blurOut" result="blurOut2" type="matrix" values="0 0 0 0 0 0 0 0 0 0 0 0 0 0 0 0 0 0 .4 0"/><feOffset dx="4.0" dy="4.0" in="blurOut2" result="blurOut3"/><feBlend in="SourceGraphic" in2="blurOut3" mode="normal"/></filter></defs><g><ellipse cx="95" cy="20" fill="#000000" filter="url(#f1j0aucds5lnje)" rx="10" ry="10" style="stroke: none; stroke-width: 1.0;"/><rect fill="#FEFECE" filter="url(#f1j0aucds5lnje)" height="33.9688" rx="12.5" ry="12.5" style="stroke: #A80036; stroke-width: 1.5;" width="170" x="10" y="50"/><text fill="#000000" font-family="sans-serif" font-size="12" lengthAdjust="spacingAndGlyphs" textLength="150" x="20" y="71.1387">fetch_user_id_command</text><rect fill="#FEFECE" filter="url(#f1j0aucds5lnje)" height="33.9688" rx="12.5" ry="12.5" style="stroke: #A80036; stroke-width: 1.5;" width="142" x="24" y="103.9688"/><text fill="#000000" font-family="sans-serif" font-size="12" lengthAdjust="spacingAndGlyphs" textLength="122" x="34" y="125.1074">get_user_command</text><rect fill="#FEFECE" filter="url(#f1j0aucds5lnje)" height="33.9688" rx="12.5" ry="12.5" style="stroke: #A80036; stroke-width: 1.5;" width="163" x="13.5" y="157.9375"/><text fill="#000000" font-family="sans-serif" font-size="12" lengthAdjust="spacingAndGlyphs" textLength="143" x="23.5" y="179.0762">render_user_command</text><ellipse cx="95" cy="222.9063" fill="#FFFFFF" filter="url(#f1j0aucds5lnje)" rx="11" ry="11" style="stroke: #000000; stroke-width: 1.0;"/><ellipse cx="95" cy="222.9063" fill="#000000" rx="6" ry="6" style="stroke: #7F7F7F; stroke-width: 1.0;"/><line style="stroke: #A80036; stroke-width: 1.5;" x1="95" x2="95" y1="30" y2="50"/><polygon fill="#A80036" points="91,40,95,50,99,40,95,44" style="stroke: #A80036; stroke-width: 1.0;"/><line style="stroke: #A80036; stroke-width: 1.5;" x1="95" x2="95" y1="83.9688" y2="103.9688"/><polygon fill="#A80036" points="91,93.9688,95,103.9688,99,93.9688,95,97.9688" style="stroke: #A80036; stroke-width: 1.0;"/><line style="stroke: #A80036; stroke-width: 1.5;" x1="95" x2="95" y1="137.9375" y2="157.9375"/><polygon fill="#A80036" points="91,147.9375,95,157.9375,99,147.9375,95,151.9375" style="stroke: #A80036; stroke-width: 1.0;"/><line style="stroke: #A80036; stroke-width: 1.5;" x1="95" x2="95" y1="191.9063" y2="211.9063"/><polygon fill="#A80036" points="91,201.9063,95,211.9063,99,201.9063,95,205.9063" style="stroke: #A80036; stroke-width: 1.0;"/><!--MD5=[882fec33f0c7084a7082cc3b84cda8fa]
@startuml
start
:fetch_user_id_command;
:get_user_command;
:render_user_command;
stop
@enduml

PlantUML version 1.2020.01beta16(Unknown compile time)
(GPL source distribution)
Java Runtime: Java(TM) SE Runtime Environment
JVM: Java HotSpot(TM) 64-Bit Server VM
Java Version: 1.7.0_25-b15
Operating System: Linux
Default Encoding: UTF-8
Language: en
Country: US
--></g></svg>