<?xml version="1.0" encoding="UTF-8" standalone="no"?><svg xmlns="http://www.w3.org/2000/svg" xmlns:xlink="http://www.w3.org/1999/xlink" contentScriptType="application/ecmascript" contentStyleType="text/css" height="298px" preserveAspectRatio="none" style="width:262px;height:298px;" version="1.1" viewBox="0 0 262 298" width="262px" zoomAndPan="magnify"><defs><filter height="300%" id="f1ozq5goydob2n" width="300%" x="-1" y="-1"><feGaussianBlur result="blurOut" stdDeviation="2.0"/><feColorMatrix in="blurOut" result="blurOut2" type="matrix" values="0 0 0 0 0 0 0 0 0 0 0 0 0 0 0 0 0 0 .4 0"/><feOffset dx="4.0" dy="4.0" in="blurOut2" result="blurOut3"/><feBlend in="SourceGraphic" in2="blurOut3" mode="normal"/></filter></defs><g><ellipse cx="130.5" cy="20" fill="#000000" filter="url(#f1ozq5goydob2n)" rx="10" ry="10" style="stroke: none; stroke-width: 1.0;"/><rect fill="#FEFECE" filter="url(#f1ozq5goydob2n)" height="33.9688" rx="12.5" ry="12.5" style="stroke: #A80036; stroke-width: 1.5;" width="240" x="10.5" y="50"/><text fill="#000000" font-family="sans-serif" font-size="12" lengthAdjust="spacingAndGlyphs" textLength="220" x="20.5" y="71.1387">fetch_authenticated_user_usecase</text><rect fill="#FEFECE" filter="url(#f1ozq5goydob2n)" height="33.9688" rx="12.5" ry="12.5" style="stroke: #A80036; stroke-width: 1.5;" width="241" x="10" y="103.9688"/><text fill="#000000" font-family="sans-serif" font-size="12" lengthAdjust="spacingAndGlyphs" textLength="221" x="20" y="125.1074">validate_user_parameters_usecase</text><rect fill="#FEFECE" filter="url(#f1ozq5goydob2n)" height="33.9688" rx="12.5" ry="12.5" style="stroke: #A80036; stroke-width: 1.5;" width="154" x="53.5" y="157.9375"/><text fill="#000000" font-family="sans-serif" font-size="12" lengthAdjust="spacingAndGlyphs" textLength="134" x="63.5" y="179.0762">create_user_usecase</text><rect fill="#FEFECE" filter="url(#f1ozq5goydob2n)" height="33.9688" rx="12.5" ry="12.5" style="stroke: #A80036; stroke-width: 1.5;" width="155" x="53" y="211.9063"/><text fill="#000000" font-family="sans-serif" font-size="12" lengthAdjust="spacingAndGlyphs" textLength="135" x="63" y="233.0449">render_user_usecase</text><ellipse cx="130.5" cy="276.875" fill="#FFFFFF" filter="url(#f1ozq5goydob2n)" rx="11" ry="11" style="stroke: #000000; stroke-width: 1.0;"/><ellipse cx="130.5" cy="276.875" fill="#000000" rx="6" ry="6" style="stroke: #7F7F7F; stroke-width: 1.0;"/><line style="stroke: #A80036; stroke-width: 1.5;" x1="130.5" x2="130.5" y1="30" y2="50"/><polygon fill="#A80036" points="126.5,40,130.5,50,134.5,40,130.5,44" style="stroke: #A80036; stroke-width: 1.0;"/><line style="stroke: #A80036; stroke-width: 1.5;" x1="130.5" x2="130.5" y1="83.9688" y2="103.9688"/><polygon fill="#A80036" points="126.5,93.9688,130.5,103.9688,134.5,93.9688,130.5,97.9688" style="stroke: #A80036; stroke-width: 1.0;"/><line style="stroke: #A80036; stroke-width: 1.5;" x1="130.5" x2="130.5" y1="137.9375" y2="157.9375"/><polygon fill="#A80036" points="126.5,147.9375,130.5,157.9375,134.5,147.9375,130.5,151.9375" style="stroke: #A80036; stroke-width: 1.0;"/><line style="stroke: #A80036; stroke-width: 1.5;" x1="130.5" x2="130.5" y1="191.9063" y2="211.9063"/><polygon fill="#A80036" points="126.5,201.9063,130.5,211.9063,134.5,201.9063,130.5,205.9063" style="stroke: #A80036; stroke-width: 1.0;"/><line style="stroke: #A80036; stroke-width: 1.5;" x1="130.5" x2="130.5" y1="245.875" y2="265.875"/><polygon fill="#A80036" points="126.5,255.875,130.5,265.875,134.5,255.875,130.5,259.875" style="stroke: #A80036; stroke-width: 1.0;"/><!--MD5=[f604236ba51a3f7d060210d92a6861af]
@startuml
start
:fetch_authenticated_user_usecase;
:validate_user_parameters_usecase;
:create_user_usecase;
:render_user_usecase;
stop
@enduml

PlantUML version 1.2020.02(Sun Mar 01 10:22:07 UTC 2020)
(GPL source distribution)
Java Runtime: Java(TM) SE Runtime Environment
JVM: Java HotSpot(TM) 64-Bit Server VM
Java Version: 1.7.0_25-b15
Operating System: Linux
Default Encoding: UTF-8
Language: en
Country: US
--></g></svg>