<?xml version="1.0" encoding="UTF-8" standalone="no"?><svg xmlns="http://www.w3.org/2000/svg" xmlns:xlink="http://www.w3.org/1999/xlink" contentScriptType="application/ecmascript" contentStyleType="text/css" height="365px" preserveAspectRatio="none" style="width:492px;height:365px;" version="1.1" viewBox="0 0 492 365" width="492px" zoomAndPan="magnify"><defs><filter height="300%" id="fz7aqpyxkdqww" width="300%" x="-1" y="-1"><feGaussianBlur result="blurOut" stdDeviation="2.0"/><feColorMatrix in="blurOut" result="blurOut2" type="matrix" values="0 0 0 0 0 0 0 0 0 0 0 0 0 0 0 0 0 0 .4 0"/><feOffset dx="4.0" dy="4.0" in="blurOut2" result="blurOut3"/><feBlend in="SourceGraphic" in2="blurOut3" mode="normal"/></filter></defs><g><ellipse cx="245.5" cy="20" fill="#000000" filter="url(#fz7aqpyxkdqww)" rx="10" ry="10" style="stroke: none; stroke-width: 1.0;"/><rect fill="#000000" filter="url(#fz7aqpyxkdqww)" height="6" rx="2.5" ry="2.5" style="stroke: #000000; stroke-width: 1.0;" width="471" x="10" y="50"/><rect fill="#FEFECE" filter="url(#fz7aqpyxkdqww)" height="33.9688" rx="12.5" ry="12.5" style="stroke: #A80036; stroke-width: 1.5;" width="170" x="22" y="110.4844"/><text fill="#000000" font-family="sans-serif" font-size="12" lengthAdjust="spacingAndGlyphs" textLength="150" x="32" y="131.623">fetch_user_id_command</text><rect fill="#FEFECE" filter="url(#fz7aqpyxkdqww)" height="33.9688" rx="12.5" ry="12.5" style="stroke: #A80036; stroke-width: 1.5;" width="153" x="268" y="76"/><text fill="#000000" font-family="sans-serif" font-size="12" lengthAdjust="spacingAndGlyphs" textLength="133" x="278" y="97.1387">fetch_user_command</text><rect fill="#FEFECE" filter="url(#fz7aqpyxkdqww)" height="33.9688" rx="12.5" ry="12.5" style="stroke: #A80036; stroke-width: 1.5;" width="249" x="220" y="144.9688"/><text fill="#000000" font-family="sans-serif" font-size="12" lengthAdjust="spacingAndGlyphs" textLength="229" x="230" y="166.1074">validate_user_parameters_command</text><rect fill="#000000" filter="url(#fz7aqpyxkdqww)" height="6" rx="2.5" ry="2.5" style="stroke: #000000; stroke-width: 1.0;" width="471" x="10" y="198.9375"/><rect fill="#FEFECE" filter="url(#fz7aqpyxkdqww)" height="33.9688" rx="12.5" ry="12.5" style="stroke: #A80036; stroke-width: 1.5;" width="166" x="162.5" y="224.9375"/><text fill="#000000" font-family="sans-serif" font-size="12" lengthAdjust="spacingAndGlyphs" textLength="146" x="172.5" y="246.0762">update_user_command</text><rect fill="#FEFECE" filter="url(#fz7aqpyxkdqww)" height="33.9688" rx="12.5" ry="12.5" style="stroke: #A80036; stroke-width: 1.5;" width="163" x="164" y="278.9063"/><text fill="#000000" font-family="sans-serif" font-size="12" lengthAdjust="spacingAndGlyphs" textLength="143" x="174" y="300.0449">render_user_command</text><ellipse cx="245.5" cy="343.875" fill="#FFFFFF" filter="url(#fz7aqpyxkdqww)" rx="11" ry="11" style="stroke: #000000; stroke-width: 1.0;"/><ellipse cx="245.5" cy="343.875" fill="#000000" rx="6" ry="6" style="stroke: #7F7F7F; stroke-width: 1.0;"/><line style="stroke: #A80036; stroke-width: 1.5;" x1="344.5" x2="344.5" y1="109.9688" y2="144.9688"/><polygon fill="#A80036" points="340.5,134.9688,344.5,144.9688,348.5,134.9688,344.5,138.9688" style="stroke: #A80036; stroke-width: 1.0;"/><line style="stroke: #A80036; stroke-width: 1.5;" x1="107" x2="107" y1="56" y2="110.4844"/><polygon fill="#A80036" points="103,100.4844,107,110.4844,111,100.4844,107,104.4844" style="stroke: #A80036; stroke-width: 1.0;"/><line style="stroke: #A80036; stroke-width: 1.5;" x1="344.5" x2="344.5" y1="56" y2="76"/><polygon fill="#A80036" points="340.5,66,344.5,76,348.5,66,344.5,70" style="stroke: #A80036; stroke-width: 1.0;"/><line style="stroke: #A80036; stroke-width: 1.5;" x1="107" x2="107" y1="144.4531" y2="198.9375"/><polygon fill="#A80036" points="103,188.9375,107,198.9375,111,188.9375,107,192.9375" style="stroke: #A80036; stroke-width: 1.0;"/><line style="stroke: #A80036; stroke-width: 1.5;" x1="344.5" x2="344.5" y1="178.9375" y2="198.9375"/><polygon fill="#A80036" points="340.5,188.9375,344.5,198.9375,348.5,188.9375,344.5,192.9375" style="stroke: #A80036; stroke-width: 1.0;"/><line style="stroke: #A80036; stroke-width: 1.5;" x1="245.5" x2="245.5" y1="30" y2="50"/><polygon fill="#A80036" points="241.5,40,245.5,50,249.5,40,245.5,44" style="stroke: #A80036; stroke-width: 1.0;"/><line style="stroke: #A80036; stroke-width: 1.5;" x1="245.5" x2="245.5" y1="204.9375" y2="224.9375"/><polygon fill="#A80036" points="241.5,214.9375,245.5,224.9375,249.5,214.9375,245.5,218.9375" style="stroke: #A80036; stroke-width: 1.0;"/><line style="stroke: #A80036; stroke-width: 1.5;" x1="245.5" x2="245.5" y1="258.9063" y2="278.9063"/><polygon fill="#A80036" points="241.5,268.9063,245.5,278.9063,249.5,268.9063,245.5,272.9063" style="stroke: #A80036; stroke-width: 1.0;"/><line style="stroke: #A80036; stroke-width: 1.5;" x1="245.5" x2="245.5" y1="312.875" y2="332.875"/><polygon fill="#A80036" points="241.5,322.875,245.5,332.875,249.5,322.875,245.5,326.875" style="stroke: #A80036; stroke-width: 1.0;"/><!--MD5=[399a218a1210b4ef9134c844571e56c5]
@startuml
start
fork
:fetch_user_id_command;
fork again
:fetch_user_command;
:validate_user_parameters_command;
end fork
:update_user_command;
:render_user_command;
stop
@enduml

PlantUML version 1.2020.01beta5(Unknown compile time)
(GPL source distribution)
Java Runtime: Java(TM) SE Runtime Environment
JVM: Java HotSpot(TM) 64-Bit Server VM
Java Version: 1.7.0_25-b15
Operating System: Linux
Default Encoding: UTF-8
Language: en
Country: US
--></g></svg>