<?xml version="1.0" encoding="UTF-8" standalone="no"?><svg xmlns="http://www.w3.org/2000/svg" xmlns:xlink="http://www.w3.org/1999/xlink" contentScriptType="application/ecmascript" contentStyleType="text/css" height="298px" preserveAspectRatio="none" style="width:270px;height:298px;" version="1.1" viewBox="0 0 270 298" width="270px" zoomAndPan="magnify"><defs><filter height="300%" id="fozblqcnz04y1" width="300%" x="-1" y="-1"><feGaussianBlur result="blurOut" stdDeviation="2.0"/><feColorMatrix in="blurOut" result="blurOut2" type="matrix" values="0 0 0 0 0 0 0 0 0 0 0 0 0 0 0 0 0 0 .4 0"/><feOffset dx="4.0" dy="4.0" in="blurOut2" result="blurOut3"/><feBlend in="SourceGraphic" in2="blurOut3" mode="normal"/></filter></defs><g><ellipse cx="134.5" cy="20" fill="#000000" filter="url(#fozblqcnz04y1)" rx="10" ry="10" style="stroke: none; stroke-width: 1.0;"/><rect fill="#FEFECE" filter="url(#fozblqcnz04y1)" height="33.9688" rx="12.5" ry="12.5" style="stroke: #A80036; stroke-width: 1.5;" width="153" x="58" y="50"/><text fill="#000000" font-family="sans-serif" font-size="12" lengthAdjust="spacingAndGlyphs" textLength="133" x="68" y="71.1387">fetch_user_command</text><rect fill="#FEFECE" filter="url(#fozblqcnz04y1)" height="33.9688" rx="12.5" ry="12.5" style="stroke: #A80036; stroke-width: 1.5;" width="249" x="10" y="103.9688"/><text fill="#000000" font-family="sans-serif" font-size="12" lengthAdjust="spacingAndGlyphs" textLength="229" x="20" y="125.1074">validate_user_parameters_command</text><rect fill="#FEFECE" filter="url(#fozblqcnz04y1)" height="33.9688" rx="12.5" ry="12.5" style="stroke: #A80036; stroke-width: 1.5;" width="162" x="53.5" y="157.9375"/><text fill="#000000" font-family="sans-serif" font-size="12" lengthAdjust="spacingAndGlyphs" textLength="142" x="63.5" y="179.0762">create_user_command</text><rect fill="#FEFECE" filter="url(#fozblqcnz04y1)" height="33.9688" rx="12.5" ry="12.5" style="stroke: #A80036; stroke-width: 1.5;" width="163" x="53" y="211.9063"/><text fill="#000000" font-family="sans-serif" font-size="12" lengthAdjust="spacingAndGlyphs" textLength="143" x="63" y="233.0449">render_user_command</text><ellipse cx="134.5" cy="276.875" fill="#FFFFFF" filter="url(#fozblqcnz04y1)" rx="11" ry="11" style="stroke: #000000; stroke-width: 1.0;"/><ellipse cx="134.5" cy="276.875" fill="#000000" rx="6" ry="6" style="stroke: #7F7F7F; stroke-width: 1.0;"/><line style="stroke: #A80036; stroke-width: 1.5;" x1="134.5" x2="134.5" y1="30" y2="50"/><polygon fill="#A80036" points="130.5,40,134.5,50,138.5,40,134.5,44" style="stroke: #A80036; stroke-width: 1.0;"/><line style="stroke: #A80036; stroke-width: 1.5;" x1="134.5" x2="134.5" y1="83.9688" y2="103.9688"/><polygon fill="#A80036" points="130.5,93.9688,134.5,103.9688,138.5,93.9688,134.5,97.9688" style="stroke: #A80036; stroke-width: 1.0;"/><line style="stroke: #A80036; stroke-width: 1.5;" x1="134.5" x2="134.5" y1="137.9375" y2="157.9375"/><polygon fill="#A80036" points="130.5,147.9375,134.5,157.9375,138.5,147.9375,134.5,151.9375" style="stroke: #A80036; stroke-width: 1.0;"/><line style="stroke: #A80036; stroke-width: 1.5;" x1="134.5" x2="134.5" y1="191.9063" y2="211.9063"/><polygon fill="#A80036" points="130.5,201.9063,134.5,211.9063,138.5,201.9063,134.5,205.9063" style="stroke: #A80036; stroke-width: 1.0;"/><line style="stroke: #A80036; stroke-width: 1.5;" x1="134.5" x2="134.5" y1="245.875" y2="265.875"/><polygon fill="#A80036" points="130.5,255.875,134.5,265.875,138.5,255.875,134.5,259.875" style="stroke: #A80036; stroke-width: 1.0;"/><!--MD5=[e2232dd89db29b785b8a0235f83dc8e1]
@startuml
start
:fetch_user_command;
:validate_user_parameters_command;
:create_user_command;
:render_user_command;
stop
@enduml

PlantUML version 1.2020.01beta5(Unknown compile time)
(GPL source distribution)
Java Runtime: Java(TM) SE Runtime Environment
JVM: Java HotSpot(TM) 64-Bit Server VM
Java Version: 1.7.0_25-b15
Operating System: Linux
Default Encoding: UTF-8
Language: en
Country: US
--></g></svg>