<?xml version="1.0" encoding="UTF-8" standalone="no"?><svg xmlns="http://www.w3.org/2000/svg" xmlns:xlink="http://www.w3.org/1999/xlink" contentScriptType="application/ecmascript" contentStyleType="text/css" height="296px" preserveAspectRatio="none" style="width:397px;height:296px;" version="1.1" viewBox="0 0 397 296" width="397px" zoomAndPan="magnify"><defs><filter height="300%" id="f6nxvt1z1zy1f" width="300%" x="-1" y="-1"><feGaussianBlur result="blurOut" stdDeviation="2.0"/><feColorMatrix in="blurOut" result="blurOut2" type="matrix" values="0 0 0 0 0 0 0 0 0 0 0 0 0 0 0 0 0 0 .4 0"/><feOffset dx="4.0" dy="4.0" in="blurOut2" result="blurOut3"/><feBlend in="SourceGraphic" in2="blurOut3" mode="normal"/></filter></defs><g><ellipse cx="198" cy="20" fill="#000000" filter="url(#f6nxvt1z1zy1f)" rx="10" ry="10" style="stroke: none; stroke-width: 1.0;"/><rect fill="#000000" filter="url(#f6nxvt1z1zy1f)" height="6" rx="2.5" ry="2.5" style="stroke: #000000; stroke-width: 1.0;" width="376" x="10" y="50"/><rect fill="#FEFECE" filter="url(#f6nxvt1z1zy1f)" height="33.9688" rx="12.5" ry="12.5" style="stroke: #A80036; stroke-width: 1.5;" width="162" x="22" y="76"/><text fill="#000000" font-family="sans-serif" font-size="12" lengthAdjust="spacingAndGlyphs" textLength="142" x="32" y="97.1387">fetch_user_id_usecase</text><rect fill="#FEFECE" filter="url(#f6nxvt1z1zy1f)" height="33.9688" rx="12.5" ry="12.5" style="stroke: #A80036; stroke-width: 1.5;" width="162" x="212" y="76"/><text fill="#000000" font-family="sans-serif" font-size="12" lengthAdjust="spacingAndGlyphs" textLength="142" x="222" y="97.1387">fetch_level_id_usecase</text><rect fill="#000000" filter="url(#f6nxvt1z1zy1f)" height="6" rx="2.5" ry="2.5" style="stroke: #000000; stroke-width: 1.0;" width="376" x="10" y="129.9688"/><rect fill="#FEFECE" filter="url(#f6nxvt1z1zy1f)" height="33.9688" rx="12.5" ry="12.5" style="stroke: #A80036; stroke-width: 1.5;" width="168" x="114" y="155.9688"/><text fill="#000000" font-family="sans-serif" font-size="12" lengthAdjust="spacingAndGlyphs" textLength="148" x="124" y="177.1074">get_user_level_usecase</text><rect fill="#FEFECE" filter="url(#f6nxvt1z1zy1f)" height="33.9688" rx="12.5" ry="12.5" style="stroke: #A80036; stroke-width: 1.5;" width="189" x="103.5" y="209.9375"/><text fill="#000000" font-family="sans-serif" font-size="12" lengthAdjust="spacingAndGlyphs" textLength="169" x="113.5" y="231.0762">render_user_level_usecase</text><ellipse cx="198" cy="274.9063" fill="#FFFFFF" filter="url(#f6nxvt1z1zy1f)" rx="11" ry="11" style="stroke: #000000; stroke-width: 1.0;"/><ellipse cx="198" cy="274.9063" fill="#000000" rx="6" ry="6" style="stroke: #7F7F7F; stroke-width: 1.0;"/><line style="stroke: #A80036; stroke-width: 1.5;" x1="103" x2="103" y1="56" y2="76"/><polygon fill="#A80036" points="99,66,103,76,107,66,103,70" style="stroke: #A80036; stroke-width: 1.0;"/><line style="stroke: #A80036; stroke-width: 1.5;" x1="293" x2="293" y1="56" y2="76"/><polygon fill="#A80036" points="289,66,293,76,297,66,293,70" style="stroke: #A80036; stroke-width: 1.0;"/><line style="stroke: #A80036; stroke-width: 1.5;" x1="103" x2="103" y1="109.9688" y2="129.9688"/><polygon fill="#A80036" points="99,119.9688,103,129.9688,107,119.9688,103,123.9688" style="stroke: #A80036; stroke-width: 1.0;"/><line style="stroke: #A80036; stroke-width: 1.5;" x1="293" x2="293" y1="109.9688" y2="129.9688"/><polygon fill="#A80036" points="289,119.9688,293,129.9688,297,119.9688,293,123.9688" style="stroke: #A80036; stroke-width: 1.0;"/><line style="stroke: #A80036; stroke-width: 1.5;" x1="198" x2="198" y1="30" y2="50"/><polygon fill="#A80036" points="194,40,198,50,202,40,198,44" style="stroke: #A80036; stroke-width: 1.0;"/><line style="stroke: #A80036; stroke-width: 1.5;" x1="198" x2="198" y1="135.9688" y2="155.9688"/><polygon fill="#A80036" points="194,145.9688,198,155.9688,202,145.9688,198,149.9688" style="stroke: #A80036; stroke-width: 1.0;"/><line style="stroke: #A80036; stroke-width: 1.5;" x1="198" x2="198" y1="189.9375" y2="209.9375"/><polygon fill="#A80036" points="194,199.9375,198,209.9375,202,199.9375,198,203.9375" style="stroke: #A80036; stroke-width: 1.0;"/><line style="stroke: #A80036; stroke-width: 1.5;" x1="198" x2="198" y1="243.9063" y2="263.9063"/><polygon fill="#A80036" points="194,253.9063,198,263.9063,202,253.9063,198,257.9063" style="stroke: #A80036; stroke-width: 1.0;"/><!--MD5=[70a15d61509ed3ee5e24753e02bf001f]
@startuml
start
fork
:fetch_user_id_usecase;
fork again
:fetch_level_id_usecase;
end fork
:get_user_level_usecase;
:render_user_level_usecase;
stop
@enduml

PlantUML version 1.2020.02(Sun Mar 01 10:22:07 UTC 2020)
(GPL source distribution)
Java Runtime: Java(TM) SE Runtime Environment
JVM: Java HotSpot(TM) 64-Bit Server VM
Java Version: 1.7.0_25-b15
Operating System: Linux
Default Encoding: UTF-8
Language: en
Country: US
--></g></svg>