<?xml version="1.0" encoding="UTF-8" standalone="no"?><svg xmlns="http://www.w3.org/2000/svg" xmlns:xlink="http://www.w3.org/1999/xlink" contentScriptType="application/ecmascript" contentStyleType="text/css" height="244px" preserveAspectRatio="none" style="width:183px;height:244px;" version="1.1" viewBox="0 0 183 244" width="183px" zoomAndPan="magnify"><defs><filter height="300%" id="f8ifbr02869vi" width="300%" x="-1" y="-1"><feGaussianBlur result="blurOut" stdDeviation="2.0"/><feColorMatrix in="blurOut" result="blurOut2" type="matrix" values="0 0 0 0 0 0 0 0 0 0 0 0 0 0 0 0 0 0 .4 0"/><feOffset dx="4.0" dy="4.0" in="blurOut2" result="blurOut3"/><feBlend in="SourceGraphic" in2="blurOut3" mode="normal"/></filter></defs><g><ellipse cx="91" cy="20" fill="#000000" filter="url(#f8ifbr02869vi)" rx="10" ry="10" style="stroke: none; stroke-width: 1.0;"/><rect fill="#FEFECE" filter="url(#f8ifbr02869vi)" height="33.9688" rx="12.5" ry="12.5" style="stroke: #A80036; stroke-width: 1.5;" width="162" x="10" y="50"/><text fill="#000000" font-family="sans-serif" font-size="12" lengthAdjust="spacingAndGlyphs" textLength="142" x="20" y="71.1387">fetch_user_id_usecase</text><rect fill="#FEFECE" filter="url(#f8ifbr02869vi)" height="33.9688" rx="12.5" ry="12.5" style="stroke: #A80036; stroke-width: 1.5;" width="134" x="24" y="103.9688"/><text fill="#000000" font-family="sans-serif" font-size="12" lengthAdjust="spacingAndGlyphs" textLength="114" x="34" y="125.1074">get_user_usecase</text><rect fill="#FEFECE" filter="url(#f8ifbr02869vi)" height="33.9688" rx="12.5" ry="12.5" style="stroke: #A80036; stroke-width: 1.5;" width="155" x="13.5" y="157.9375"/><text fill="#000000" font-family="sans-serif" font-size="12" lengthAdjust="spacingAndGlyphs" textLength="135" x="23.5" y="179.0762">render_user_usecase</text><ellipse cx="91" cy="222.9063" fill="#FFFFFF" filter="url(#f8ifbr02869vi)" rx="11" ry="11" style="stroke: #000000; stroke-width: 1.0;"/><ellipse cx="91" cy="222.9063" fill="#000000" rx="6" ry="6" style="stroke: #7F7F7F; stroke-width: 1.0;"/><line style="stroke: #A80036; stroke-width: 1.5;" x1="91" x2="91" y1="30" y2="50"/><polygon fill="#A80036" points="87,40,91,50,95,40,91,44" style="stroke: #A80036; stroke-width: 1.0;"/><line style="stroke: #A80036; stroke-width: 1.5;" x1="91" x2="91" y1="83.9688" y2="103.9688"/><polygon fill="#A80036" points="87,93.9688,91,103.9688,95,93.9688,91,97.9688" style="stroke: #A80036; stroke-width: 1.0;"/><line style="stroke: #A80036; stroke-width: 1.5;" x1="91" x2="91" y1="137.9375" y2="157.9375"/><polygon fill="#A80036" points="87,147.9375,91,157.9375,95,147.9375,91,151.9375" style="stroke: #A80036; stroke-width: 1.0;"/><line style="stroke: #A80036; stroke-width: 1.5;" x1="91" x2="91" y1="191.9063" y2="211.9063"/><polygon fill="#A80036" points="87,201.9063,91,211.9063,95,201.9063,91,205.9063" style="stroke: #A80036; stroke-width: 1.0;"/><!--MD5=[0b9113dbc4c8b3ec7494e186e18b24e0]
@startuml
start
:fetch_user_id_usecase;
:get_user_usecase;
:render_user_usecase;
stop
@enduml

PlantUML version 1.2020.02(Sun Mar 01 10:22:07 UTC 2020)
(GPL source distribution)
Java Runtime: Java(TM) SE Runtime Environment
JVM: Java HotSpot(TM) 64-Bit Server VM
Java Version: 1.7.0_25-b15
Operating System: Linux
Default Encoding: UTF-8
Language: en
Country: US
--></g></svg>