<?xml version="1.0" encoding="UTF-8" standalone="no"?><svg xmlns="http://www.w3.org/2000/svg" xmlns:xlink="http://www.w3.org/1999/xlink" contentScriptType="application/ecmascript" contentStyleType="text/css" height="296px" preserveAspectRatio="none" style="width:413px;height:296px;" version="1.1" viewBox="0 0 413 296" width="413px" zoomAndPan="magnify"><defs><filter height="300%" id="fkvqw01ndgzp7" width="300%" x="-1" y="-1"><feGaussianBlur result="blurOut" stdDeviation="2.0"/><feColorMatrix in="blurOut" result="blurOut2" type="matrix" values="0 0 0 0 0 0 0 0 0 0 0 0 0 0 0 0 0 0 .4 0"/><feOffset dx="4.0" dy="4.0" in="blurOut2" result="blurOut3"/><feBlend in="SourceGraphic" in2="blurOut3" mode="normal"/></filter></defs><g><ellipse cx="206" cy="20" fill="#000000" filter="url(#fkvqw01ndgzp7)" rx="10" ry="10" style="stroke: none; stroke-width: 1.0;"/><rect fill="#000000" filter="url(#fkvqw01ndgzp7)" height="6" rx="2.5" ry="2.5" style="stroke: #000000; stroke-width: 1.0;" width="392" x="10" y="50"/><rect fill="#FEFECE" filter="url(#fkvqw01ndgzp7)" height="33.9688" rx="12.5" ry="12.5" style="stroke: #A80036; stroke-width: 1.5;" width="170" x="22" y="76"/><text fill="#000000" font-family="sans-serif" font-size="12" lengthAdjust="spacingAndGlyphs" textLength="150" x="32" y="97.1387">fetch_user_id_command</text><rect fill="#FEFECE" filter="url(#fkvqw01ndgzp7)" height="33.9688" rx="12.5" ry="12.5" style="stroke: #A80036; stroke-width: 1.5;" width="170" x="220" y="76"/><text fill="#000000" font-family="sans-serif" font-size="12" lengthAdjust="spacingAndGlyphs" textLength="150" x="230" y="97.1387">fetch_level_id_command</text><rect fill="#000000" filter="url(#fkvqw01ndgzp7)" height="6" rx="2.5" ry="2.5" style="stroke: #000000; stroke-width: 1.0;" width="392" x="10" y="129.9688"/><rect fill="#FEFECE" filter="url(#fkvqw01ndgzp7)" height="33.9688" rx="12.5" ry="12.5" style="stroke: #A80036; stroke-width: 1.5;" width="176" x="118" y="155.9688"/><text fill="#000000" font-family="sans-serif" font-size="12" lengthAdjust="spacingAndGlyphs" textLength="156" x="128" y="177.1074">get_user_level_command</text><rect fill="#FEFECE" filter="url(#fkvqw01ndgzp7)" height="33.9688" rx="12.5" ry="12.5" style="stroke: #A80036; stroke-width: 1.5;" width="197" x="107.5" y="209.9375"/><text fill="#000000" font-family="sans-serif" font-size="12" lengthAdjust="spacingAndGlyphs" textLength="177" x="117.5" y="231.0762">render_user_level_command</text><ellipse cx="206" cy="274.9063" fill="#FFFFFF" filter="url(#fkvqw01ndgzp7)" rx="11" ry="11" style="stroke: #000000; stroke-width: 1.0;"/><ellipse cx="206" cy="274.9063" fill="#000000" rx="6" ry="6" style="stroke: #7F7F7F; stroke-width: 1.0;"/><line style="stroke: #A80036; stroke-width: 1.5;" x1="107" x2="107" y1="56" y2="76"/><polygon fill="#A80036" points="103,66,107,76,111,66,107,70" style="stroke: #A80036; stroke-width: 1.0;"/><line style="stroke: #A80036; stroke-width: 1.5;" x1="305" x2="305" y1="56" y2="76"/><polygon fill="#A80036" points="301,66,305,76,309,66,305,70" style="stroke: #A80036; stroke-width: 1.0;"/><line style="stroke: #A80036; stroke-width: 1.5;" x1="107" x2="107" y1="109.9688" y2="129.9688"/><polygon fill="#A80036" points="103,119.9688,107,129.9688,111,119.9688,107,123.9688" style="stroke: #A80036; stroke-width: 1.0;"/><line style="stroke: #A80036; stroke-width: 1.5;" x1="305" x2="305" y1="109.9688" y2="129.9688"/><polygon fill="#A80036" points="301,119.9688,305,129.9688,309,119.9688,305,123.9688" style="stroke: #A80036; stroke-width: 1.0;"/><line style="stroke: #A80036; stroke-width: 1.5;" x1="206" x2="206" y1="30" y2="50"/><polygon fill="#A80036" points="202,40,206,50,210,40,206,44" style="stroke: #A80036; stroke-width: 1.0;"/><line style="stroke: #A80036; stroke-width: 1.5;" x1="206" x2="206" y1="135.9688" y2="155.9688"/><polygon fill="#A80036" points="202,145.9688,206,155.9688,210,145.9688,206,149.9688" style="stroke: #A80036; stroke-width: 1.0;"/><line style="stroke: #A80036; stroke-width: 1.5;" x1="206" x2="206" y1="189.9375" y2="209.9375"/><polygon fill="#A80036" points="202,199.9375,206,209.9375,210,199.9375,206,203.9375" style="stroke: #A80036; stroke-width: 1.0;"/><line style="stroke: #A80036; stroke-width: 1.5;" x1="206" x2="206" y1="243.9063" y2="263.9063"/><polygon fill="#A80036" points="202,253.9063,206,263.9063,210,253.9063,206,257.9063" style="stroke: #A80036; stroke-width: 1.0;"/><!--MD5=[c032fc8240602b91da7bd34a439f3d19]
@startuml
start
fork
:fetch_user_id_command;
fork again
:fetch_level_id_command;
end fork
:get_user_level_command;
:render_user_level_command;
stop
@enduml

PlantUML version 1.2020.01beta16(Unknown compile time)
(GPL source distribution)
Java Runtime: Java(TM) SE Runtime Environment
JVM: Java HotSpot(TM) 64-Bit Server VM
Java Version: 1.7.0_25-b15
Operating System: Linux
Default Encoding: UTF-8
Language: en
Country: US
--></g></svg>